HIERARCHY
ROOT Hips
{
	OFFSET 0.00000 0.00000 0.00000
	CHANNELS 6 Xposition Yposition Zposition Zrotation Yrotation Xrotation 
	JOINT LHipJoint
	{
		OFFSET 0 0 0
		CHANNELS 3 Zrotation Yrotation Xrotation
		JOINT LeftHip
		{
			OFFSET 1.39187 -1.60231 0.69152
			CHANNELS 3 Zrotation Yrotation Xrotation
			JOINT LeftKnee
			{
				OFFSET 2.43314 -6.68499 0.00000
				CHANNELS 3 Zrotation Yrotation Xrotation
				JOINT LeftAnkle
				{
					OFFSET 2.32059 -6.37578 0.00000
					CHANNELS 3 Zrotation Yrotation Xrotation
					JOINT LeftToe
					{
						OFFSET 0.23021 -0.63250 1.71305
						CHANNELS 3 Zrotation Yrotation Xrotation
						End Site
						{
							OFFSET 0.00000 -0.00000 0.91647
						}
					}
				}
			}
		}
	}
	JOINT RHipJoint
	{
		OFFSET 0 0 0
		CHANNELS 3 Zrotation Yrotation Xrotation
		JOINT RightHip
		{
			OFFSET -1.19407 -1.60231 0.69152
			CHANNELS 3 Zrotation Yrotation Xrotation
			JOINT RightKnee
			{
				OFFSET -2.44411 -6.71513 0.00000
				CHANNELS 3 Zrotation Yrotation Xrotation
				JOINT RightAnkle
				{
					OFFSET -2.31924 -6.37207 0.00000
					CHANNELS 3 Zrotation Yrotation Xrotation
					JOINT RightToe
					{
						OFFSET -0.19473 -0.53502 1.87724
						CHANNELS 3 Zrotation Yrotation Xrotation
						End Site
						{
							OFFSET -0.00000 -0.00000 0.98293
						}
					}
				}
			}
		}
	}
	JOINT lowerback
	{
		OFFSET 0 0 0
		CHANNELS 3 Zrotation Yrotation Xrotation
		JOINT Chest
		{
			OFFSET -0.01120 1.87307 0.09613
			CHANNELS 3 Zrotation Yrotation Xrotation
			JOINT Chest2
			{
				OFFSET 0.01099 1.87818 0.04834
				CHANNELS 3 Zrotation Yrotation Xrotation
				JOINT lowerneck
				{
					OFFSET 0 0 0
					CHANNELS 3 Zrotation Yrotation Xrotation
					JOINT Neck
					{
						OFFSET 0.01702 1.40324 -0.12579
						CHANNELS 3 Zrotation Yrotation Xrotation
						JOINT Head
						{
							OFFSET -0.04239 1.38587 -0.01614
							CHANNELS 3 Zrotation Yrotation Xrotation
							End Site
							{
								OFFSET -0.02510 1.47031 -0.00154
							}
						}
					}
				}
				JOINT LeftCollar
				{
					OFFSET 0 0 0
					CHANNELS 3 Zrotation Yrotation Xrotation
					JOINT LeftShoulder
					{
						OFFSET 2.95699 0.62343 0.11653
CHANNELS 3 Zrotation Xrotation Yrotation
						JOINT LeftElbow
						{
OFFSET 0 -4.683820 -0.000000
CHANNELS 3 Zrotation Xrotation Yrotation
							JOINT LeftWrist
							{
OFFSET 0 -2.981240 -0.000000
CHANNELS 3 Zrotation Xrotation Yrotation
								JOINT lhand
								{
									OFFSET 0 0 0
CHANNELS 3 Zrotation Xrotation Yrotation
									JOINT LFingers
									{
OFFSET 0 -0.707590 0.000000
CHANNELS 3 Zrotation Xrotation Yrotation
										End Site
										{
OFFSET 0 -0.570480 0.000000
										}
									}
								}
								JOINT LThumb
								{
OFFSET 0 0.000000 0.000000
CHANNELS 3 Zrotation Xrotation Yrotation
									End Site
									{
OFFSET 0 -0.579190 0.579190
									}
								}
							}
						}
					}
				}
				JOINT RightCollar
				{
					OFFSET 0 0 0
					CHANNELS 3 Zrotation Yrotation Xrotation
					JOINT RightShoulder
					{
						OFFSET -2.99027 0.88714 -0.02793
CHANNELS 3 Zrotation Xrotation Yrotation
						JOINT RightElbow
						{
OFFSET 0 -4.758760 -0.000000
CHANNELS 3 Zrotation Xrotation Yrotation
							JOINT RightWrist
							{
OFFSET 0 -2.932930 -0.000000
CHANNELS 3 Zrotation Xrotation Yrotation
								JOINT rhand
								{
									OFFSET 0 0 0
CHANNELS 3 Zrotation Xrotation Yrotation
									JOINT RFingers
									{
OFFSET 0 -0.831750 0.000000
CHANNELS 3 Zrotation Xrotation Yrotation
										End Site
										{
OFFSET 0 -0.670580 0.000000
										}
									}
								}
								JOINT RThumb
								{
OFFSET 0 0.000000 0.000000
CHANNELS 3 Zrotation Xrotation Yrotation
									End Site
									{
OFFSET 0 -0.680820 0.680820
									}
								}
							}
						}
					}
				}
			}
		}
	}
}
MOTION
Frames: 10
Frame Time: 0.008333333333333333
-3.929646 14.673696 -1.221270 40.887294 -80.813482 6.694130 0.000000 0.000000 0.000000 -20.721476 -30.966669 -70.669523 10.075984 17.452339 59.741971 1.595602 13.792346 -32.276840 0.190537 2.811480 7.754257 0.000000 0.000000 0.000000 14.049290 12.131259 -94.374093 -1.198837 -6.947092 19.558793 -2.357970 -4.609080 27.999742 -0.004391 0.427800 -1.175426 -2.355892 -4.634580 13.636823 5.533605 -6.574111 7.174669 7.968187 -3.606981 0.936226 0.702821 4.527634 -13.201300 -5.148198 4.108807 -22.278761 -1.684638 1.557589 -4.515138 0.000000 0.000000 0.000000 269.219614 -79.391565 -130.192606 9.925149 -16.622389 1.453490 -0.073583 -0.197149 -44.720026 0.000000 0.000000 0.000000 -7.125000 0.000000 0.000000 -52.987946 67.468745 32.031914 0.000000 0.000000 0.000000 -0.590934 -35.448061 75.260637 -70.324105 -58.485439 -43.046822 -32.658170 -29.713491 0.774471 0.000000 0.000000 0.000000 7.125000 0.000000 0.000000 -4.842450 30.879061 -1.676186
-3.791644 14.657876 -1.192096 41.707211 -80.982014 5.504514 0.000000 0.000000 0.000000 -20.750679 -31.175449 -71.031902 10.138908 17.487241 59.951631 1.519687 13.779014 -31.802910 0.271509 3.351171 9.257993 0.000000 0.000000 0.000000 10.850926 12.186256 -93.811039 -1.139778 -6.779770 19.064633 -2.735502 -6.398435 30.015863 -0.005092 0.462188 -1.269913 -2.479189 -4.636688 13.730901 5.575212 -6.590639 7.132256 8.097638 -3.618618 0.864464 0.648159 4.517327 -13.018053 -5.375714 4.099848 -22.014243 -1.746703 1.582123 -4.453198 0.000000 0.000000 0.000000 268.965560 -79.370597 -129.448811 9.722923 -16.304979 1.396164 -0.627273 0.417542 -44.733957 0.000000 0.000000 0.000000 -7.125000 0.000000 0.000000 -53.499271 67.303511 32.225490 0.000000 0.000000 0.000000 -0.564120 -35.300872 75.398038 -69.998680 -58.433100 -42.769522 -33.090261 -30.441889 -0.338073 0.000000 0.000000 0.000000 7.125000 0.000000 0.000000 -5.118303 29.557947 -1.934292
-3.661109 14.651807 -1.160434 41.153819 -81.251225 5.489496 0.000000 0.000000 0.000000 -20.666219 -31.192095 -71.164870 10.201930 17.521862 60.161079 1.402134 13.851830 -31.131859 0.357514 3.840520 10.628470 0.000000 0.000000 0.000000 7.969687 12.387023 -92.903567 -1.071124 -6.579049 18.474185 -3.079452 -7.102768 31.866499 -0.011080 0.668869 -1.838220 -2.479173 -4.621355 13.776237 5.572093 -6.587538 7.270740 8.090630 -3.629432 0.987553 0.947944 4.623799 -12.531468 -5.765447 4.156723 -22.299355 -1.931470 1.613438 -4.592901 0.000000 0.000000 0.000000 268.949682 -79.482395 -128.863520 9.609680 -16.126649 1.364550 -0.884179 0.913167 -44.745369 0.000000 0.000000 0.000000 -7.125000 0.000000 0.000000 -53.745223 67.229982 32.324968 0.000000 0.000000 0.000000 -0.131801 -34.717632 74.810299 -71.907937 -58.726353 -44.398833 -33.860436 -30.389189 -1.143697 0.000000 0.000000 0.000000 7.125000 0.000000 0.000000 -5.658915 28.582142 -2.275230
-3.536778 14.632064 -1.128220 41.588587 -81.750630 4.799580 0.000000 0.000000 0.000000 -20.748412 -30.906177 -71.765822 10.315059 17.583212 60.536273 1.359051 13.575435 -30.617697 0.419868 4.155218 11.514256 0.000000 0.000000 0.000000 4.727887 12.777978 -92.637155 -1.071372 -6.579837 18.476404 -3.324054 -8.518255 33.055693 -0.015829 0.811659 -2.230681 -2.543275 -4.523588 13.463438 5.581331 -6.484255 7.385085 8.086481 -3.595668 1.268526 1.210894 4.737438 -12.673814 -6.319210 4.216520 -22.111466 -2.143456 1.645501 -4.485584 0.000000 0.000000 0.000000 268.298145 -79.504603 -128.760887 9.452249 -15.878282 1.321163 -0.959055 1.411753 -44.741141 0.000000 0.000000 0.000000 -7.125000 0.000000 0.000000 -53.802640 67.204164 32.338304 0.000000 0.000000 0.000000 0.115154 -35.093208 75.000505 -70.968462 -58.585716 -43.596493 -34.793826 -32.270091 -3.322824 0.000000 0.000000 0.000000 7.125000 0.000000 0.000000 -6.188999 25.928925 -2.875749
-3.420108 14.602412 -1.094402 44.369129 -82.332139 1.741239 0.000000 0.000000 0.000000 -21.179315 -30.561476 -72.294607 10.433698 17.646617 60.928385 1.313547 13.409425 -30.176498 0.434788 4.226869 11.716496 0.000000 0.000000 0.000000 1.071172 13.129681 -92.607146 -1.126535 -6.741656 18.952182 -3.517343 -9.089428 34.016378 -0.064302 1.627456 -4.477334 -2.955811 -4.490286 13.230364 5.479732 -6.500966 7.515894 8.180070 -3.631584 1.571822 1.085250 4.782056 -13.311127 -6.279777 4.312531 -21.554294 -2.088966 1.688530 -4.218239 0.000000 0.000000 0.000000 268.290251 -79.957764 -128.578185 9.479998 -15.922032 1.328690 -2.886484 0.132083 -45.208773 0.000000 0.000000 0.000000 -7.125000 0.000000 0.000000 -56.348038 66.876622 33.864067 0.000000 0.000000 0.000000 0.643967 -34.734919 74.964288 -72.420468 -58.798253 -44.837242 -34.631059 -31.951405 -3.623093 0.000000 0.000000 0.000000 7.125000 0.000000 0.000000 -6.038590 25.574531 -2.855653
-3.315399 14.589345 -1.055836 45.531908 -83.167364 0.141912 0.000000 0.000000 0.000000 -21.521427 -29.728448 -72.715404 10.545585 17.705403 61.296916 1.250171 13.545011 -29.878314 0.361955 3.862889 10.691516 0.000000 0.000000 0.000000 -2.236708 13.726133 -92.262195 -1.189461 -6.920911 19.481267 -3.564682 -8.858418 34.272589 -0.159277 2.530958 -6.977806 -3.099892 -4.347964 13.210954 5.360539 -6.341976 7.595190 8.112263 -3.561471 1.641244 1.575752 4.922570 -12.986092 -6.725622 4.400345 -21.649601 -2.316657 1.721470 -4.263067 0.000000 0.000000 0.000000 267.090205 -80.267777 -129.386900 9.090061 -15.303818 1.223799 -5.063626 -0.796091 -44.829971 0.000000 0.000000 0.000000 -7.125000 0.000000 0.000000 -57.478690 65.992224 33.664971 0.000000 0.000000 0.000000 1.433234 -34.733911 75.084634 -71.809598 -58.712020 -44.314794 -32.794498 -29.297241 -0.241186 0.000000 0.000000 0.000000 7.125000 0.000000 0.000000 -4.892600 29.675722 -1.834758
-3.208447 14.570952 -1.020681 44.245020 -83.795667 0.873942 0.000000 0.000000 0.000000 -21.857349 -28.717160 -73.134016 10.738736 17.804716 61.929977 1.299064 13.303069 -29.986866 0.287251 3.441222 9.510145 0.000000 0.000000 0.000000 -5.198190 14.157816 -91.800437 -1.284400 -7.181128 20.253382 -3.449959 -7.802598 33.764790 -0.485395 4.460480 -12.377040 -3.055227 -4.273650 13.422468 5.422315 -6.256532 7.675304 8.163770 -3.526751 1.602941 1.553993 4.905128 -12.841594 -6.624706 4.401301 -21.573004 -2.282490 1.724168 -4.264474 0.000000 0.000000 0.000000 266.379641 -80.349217 -128.469221 8.816860 -14.868014 1.152754 -6.182157 -0.378792 -44.989480 0.000000 0.000000 0.000000 -7.125000 0.000000 0.000000 -58.706345 65.742709 34.288032 0.000000 0.000000 0.000000 1.858528 -34.392395 74.969065 -72.672571 -58.834536 -45.052717 -33.649381 -30.200130 -1.771550 0.000000 0.000000 0.000000 7.125000 0.000000 0.000000 -5.450716 27.837471 -2.285470
-3.123597 14.538584 -0.987295 43.749798 -84.483352 0.800144 0.000000 0.000000 0.000000 -22.264423 -27.687378 -73.580218 10.988171 17.929208 62.742989 1.411119 12.873958 -30.351621 0.292864 3.480019 9.618195 0.000000 0.000000 0.000000 -5.951400 14.279434 -91.755507 -1.482553 -7.691914 21.782750 -2.954896 -5.560214 31.362988 -0.614437 5.016071 -13.954465 -3.204170 -4.223284 13.605336 5.487182 -6.224920 7.762641 8.330513 -3.528896 1.620464 1.526018 4.966470 -12.154134 -6.484553 4.501944 -21.958542 -2.252964 1.784281 -4.489029 0.000000 0.000000 0.000000 266.613603 -80.547081 -126.211022 8.568419 -14.469913 1.089747 -6.383601 0.854095 -44.641179 0.000000 0.000000 0.000000 -7.125000 0.000000 0.000000 -58.246503 65.487489 33.626051 0.000000 0.000000 0.000000 2.326859 -34.277410 75.223213 -72.779445 -58.849264 -45.144182 -33.744963 -30.054254 -1.806853 0.000000 0.000000 0.000000 7.125000 0.000000 0.000000 -5.522228 27.793353 -2.320284
-3.040256 14.496123 -0.954214 41.963972 -85.170552 2.084765 0.000000 0.000000 0.000000 -22.619230 -26.586856 -74.184417 11.276165 18.067545 63.675006 1.442020 12.488870 -30.230681 0.359170 3.849120 10.652697 0.000000 0.000000 0.000000 -5.077872 14.169553 -92.251319 -1.879871 -8.609996 24.583455 -2.069646 -1.731217 26.736029 -0.985593 6.310760 -17.691725 -3.055285 -4.204193 13.728602 5.456729 -6.197167 7.838319 8.218288 -3.515001 1.609573 1.352950 4.995489 -11.835177 -6.223704 4.596794 -22.069992 -2.150178 1.841035 -4.582313 0.000000 0.000000 0.000000 266.991087 -80.823109 -124.849740 8.424791 -14.239116 1.054143 -6.365617 1.319694 -44.940640 0.000000 0.000000 0.000000 -7.125000 0.000000 0.000000 -58.769295 65.660180 34.234007 0.000000 0.000000 0.000000 2.982321 -34.153485 75.674096 -72.769057 -58.847850 -45.135341 -33.531004 -29.632315 -1.283044 0.000000 0.000000 0.000000 7.125000 0.000000 0.000000 -5.396932 28.425004 -2.186089
-2.967354 14.446304 -0.923801 40.455988 -85.809446 3.223770 0.000000 0.000000 0.000000 -22.861863 -25.737052 -74.740868 11.546928 18.192376 64.545108 1.475243 11.849179 -29.925544 0.450579 4.305555 11.937963 0.000000 0.000000 0.000000 -4.290074 13.971629 -93.129167 -2.513879 -9.857370 28.520881 -1.105698 0.831559 20.154214 -1.592165 7.958530 -22.588556 -2.884196 -4.187637 13.573457 5.398203 -6.172776 7.963407 8.032063 -3.507536 1.794119 1.788829 5.166779 -11.928077 -6.662844 4.755767 -21.795801 -2.352715 1.909149 -4.447319 0.000000 0.000000 0.000000 266.605306 -81.065874 -124.448272 8.253776 -13.963411 1.012488 -7.212359 1.208583 -44.743689 0.000000 0.000000 0.000000 -7.125000 0.000000 0.000000 -59.117849 65.296726 34.046829 0.000000 0.000000 0.000000 3.202448 -34.412029 76.472349 -72.679507 -58.835520 -45.058614 -33.872956 -29.245745 -0.843624 0.000000 0.000000 0.000000 7.125000 0.000000 0.000000 -5.693796 28.943764 -2.237168
